<svg xmlns="http://www.w3.org/2000/svg" viewBox="0 0 217.66 217.66"><defs><style>.cls-1{fill:#417053;}.cls-2{fill:#f8f8f8;}</style></defs><g id="Layer_2" data-name="Layer 2"><g id="Layer_1-2" data-name="Layer 1"><circle class="cls-1" cx="108.83" cy="108.83" r="108.83"/><path class="cls-2" d="M197,54.8l-1.25,1c1.25.24,2.78-.22,3,1.55L194,57.6l1.29,1.21h-4.64c.07.64,1.42.35,2,.6-2.36.3-4.75.08-7.22,1.33,4.12,1.1,7.46-.55,12-.21l-3.63,2.19,5.71.32-5,2.52,1.84.93c-2,.38-4.8-.4-6,.64l2.72.92-1.28.73,2.17.1,0,.4c-14.13-1.92-6.34,3.77,2.15,1.31l-1,1,5.24,1.06c-5.25.6-2.27,1.6,1.18,2.09l-3.72.63.32.75c-1-.3-3.32.77-3.58-.7-1.9-.57-8.61-.56-8.49,2.81l3.45-.7-.27.66,5.95,1.32c-.25.25-.6.41-.43.78a5.85,5.85,0,0,1,4.24,0c-2.77,1.73-5.57.71-8.51,1.3l.55,1.51c-2-.81-5.82-2.73-4.85,1,2.88.78,5.35-.65,8.19-.85,1.21,2.59-3.2,1.89-4.63,2.52,4,1,9.45-1.87,14-1.33l-.41,1,5.3.87-3.7,1.26c.1.53,1.72.47.33,1.39,2-.48,2,0,2.57,1.36l-5.56,1.61c4.89.35,2.75,2.34-.19,1.93l-1.05.87c-.32-1-2.54-.74-3.69-1.28l2.38-.51-6.59-1.33c.2.81.2.81,2.54,1.6-.57,2.45-2.94-1.5-4.76.53-1.51-1-3.89-4-3.9-.31l-1.6-.51.91,1.8c-2.68,4.14,6.75.62,8.21,2.53l-2.91.51c3.19,2.48,8.67-1.33,13,.9-.91.6-2.55-.18-2.27,1.5-2.42-1.2-4.58-.49-7.05.08l.86,1.61-4.38-.5,1.41,1.94-5-2c.3,1.17-1.73,1.4-2.67,2.26-.19,1.09.46,1.81,1.16,1.22,2.16-1.16,4.29.13,6.4-1.21,4.85-3,11.6-3.55,16.6-.89-2.42.38-5.6,0-7.65.77l5.56.9c-.57,1.81-5.67-.74-6.1,1.19a8.81,8.81,0,0,1,6.48,1h-3.38l.4,1.33-8.1-1.69.89,1.28c-2.1-.5-4-1.11-6.25-.16l6,1.06c-.65,2.45-3.94.16-5.87.2l-.08.38c3.4,1.72,6.69,1.53,10.56.4v1.37l4.8-.22v.93h3.39l-.55.72,3.06.38c-1.74.35-8.52.43-4.55,1.62l-4.35,1.06,1,1.07c-2.94.26-8.6-2.78-10.06-.42l-3.18-2.14.27,1.46c-1.64-.54-2.73-2.06-3.52.12-.18-1.54-.76-1.93-2-2.52-5.29,12.22,13.6,9.8,20.34,9.93l-3.08.71c0,.71,1.44,0,1.56.66-2,.39-4.48,1.09-.95,1.25l0,.43a52.94,52.94,0,0,1-7.88-.81c1.37,3.12-2,.59-3.45.24l.17,1.08-3.67-1.78c2.24,4.27-.95.45-3,.74-2.18,5,4.15,5.55,7.9,6-.46.2-1.47-.06-1.47.56,6.24,1.05,12.74,2.06,19,1l-1.76,1.26,3,.75c-1.19,1-4.59-.65-5.84.29,1.16.32,2.48-.22,2.43,1.51-2.13-.21-5.26-2.39-6.62-1.37l2.17.92-1.76.38c4.3,2.53,5.93,1.66,10.24,1.53-1.58.6-.2,2.57-2.48,2.06,4.65,3.55-4.48-1.64-4.42,1.15-2-.83-3.57-1.49-5.62-2.4-.48,2.06-.91,3.52-1.51.62-.32,2.69-3.26,1.77-4.87,2.72,2.9,2.3,6.67-.9,10-1l-.28.94,1.88.23-1.44,1,5.27.41c-4.38,3-9.71-1.77-10.57.71a8.08,8.08,0,0,1,5.16,1.44c-3.2,1-8.22-1.58-11.86-1.31a7.87,7.87,0,0,0,4.86,1.35v.42h-4.17l0,.27-2-1.2-.15,2.13c-.81-1-.71-1.89-1.95-1.16l-.24-1.36-1,.32c-.31-5.26-4.54,14.94,3,4.48,1.2,2.21-2.56,3.42-3.4,5.23-.87,9.55,1.91,26.57,1.44,27.06-3,3.17-1.12,1.21-3.79,4,.07-10.81-2.26-23.41-2.38-34.22a2.13,2.13,0,0,0-1.53-2.33c-3.44-1.62-.95-1.67,1.36-.7.07-3.83.29-5.41-2.67-2.17l1.59-3.31c-2.93.73-1.07,4.35-4.31,4.3l.38-1.35-2.58.52c.55-1.29,2.94-1.46,2.46-3.25-1.5.56-6.84,2.77-3.38.25-3.6-.38-3.34,3.88-5.82,3.44l.82-1.46c-.73.08-1.49.78-2,.3l1.19-.59c-.36-.53-1.29-.13-1.88-.25.4.54-.77.83-1.17,1.06a2.39,2.39,0,0,0-2.14-1.57l4.5-.9-.11-.43c-3.35.1-5.31,2.18-8.73.32.7-.29,2,0,2.19-.71-1-.42-3.18-.09-3.63-1,2-.14,3.41-.15,5.66-.13-.86-.76-2.38-1-2.27-1.79,3.29,2.79,26.82,1.72,20.55-4.16-2.09-.2-3.52,1.83-5.63,2.38l.7-1.8c-.68.5-3.12,2.11-2.47.11l-3.64.83.08-1.06-1.52,2.6c-1-2-1.71-.19-2.91-.29,3.51-3.4-.92.29-1.85-2l3.18-1.18c-1.64-1-5.19,1.94-7.26,1.62l1.87-1.54c-1.9-.41-5.36,2.75-6.82,1.48.66-.47,2.09-.56,2.29-1.3H154.6c-.1-.87,1.94-.26,1.63-1.3h-5.76c8.94-3.86,23.7-.17,32.42-5.39.37-2.12,0-3.71-1.74-1.23l-.5-1.22-1.64,1.7c0-1.36-.82-1.12-1.76-.78l.5-1.28a8.22,8.22,0,0,0-7.08,2.34c.16-1.81-1.86-.53-2.08-1.42,6.69-1.86-7.07.49-9.14-1.7,6.36.09,3.47-.43-.74-2h12.35l-5.56-3.28c2.74.07,8.42,2.75,11.14,1-.56-.26-1.85,0-1.94-.66,4.15.24,10.1.19,7.76-5.65-2.56.38-6.52,6.54-4.43,1.09-2-.85-3.76,1.54-5.42.13l4.54-1.92-.36-.6c-5,3.78-8.21-.07-13.56.46l0-.56,3.86-.33c-1-2.06-3.11-.86-4.64-2.5l2.27-.58c-1.64-.73-2.07-2.6-4.44-2.32,3.05-1.57,7.12,1.08,10.44-.58,1-.11,1.67.35,2.41-.81,2,.47,9.57,1.33,9.82-1.65-.2-.87.72-2.6-.78-2.54-.49-2.59-2.81,3.27-6.39,1.93l.94-.6c-3.37.58-6.63,1.63-10.18.54l5.05-1.35c-5.61-2.06,1.44.11-.06-2.36h4.26l-.67-1,2.31-.44c-3.54-1.4-7.5,2-11.11,1.91,2.67-1.72-4.15-.21-5.48-.31l-.05-.48,3.19-.58-1.71-.87c2-.43,4.62,1.1,5.18-1.11L166,97.29c1.73-1.32,5.46.27,7.93-.14-8.92-4.11,9,1.66,9-3.07-.78-2.42-5.66,2.87-4.83-.33l-6.1-1.33c2.31-1.73,12.33.87,11-3.79-1.75-1.32-3.43-.48-5.39.06.57.37,1,.3,1.05.86-2.44.18-5.4,1.49-7.59,1.06,3.92-2.25,1.62-2.82-1.59-2.49l.43-.64-1.62-.32c3.83-1.79,8.25-.53,11.81-2.34-.71-2.41,4.63-1.44,1.45-2.42l1.37-.88c-1.57-1.31-9.18,4.68-8.51,1.86l-5.22.7,1.43,1.08c-2,0-2.46-.19-2.65-1.13-.95-.88-3.45-1.23-2.89-2.35,1.77.71,3.54,1.45,5.79.16l-3.13-.47c2.71-1.18,5.22.34,8-.78-3.53-3.28,4.2-.45,5.81-2.64,5-5.38-5.66-2.81,0-4.41-2.39-2.1-5.52,1.62-9.21.57l1.84-1.22-5.67-.65c.78-1.1,8.24.36,3.74-1.54l4.51-.67-1.25-1.41c2-.22,4.93,1.23,3.21-1.16,2,.07,7.28,1,2.37-1.11.88-.41,2.84-.17,1.92-2-2.15-.88-2.82,1.64-4.78,1.55a5.24,5.24,0,0,0-5.19-2.5l1.45-.28c-4.22-2.16,1.85-.86,4-.82l-.62-1c3.72.45,2.6-.86,5.19-.88V58.48c-.64,0-1.5.45-2-.08,1.11-.71,2.92-1.08,1.81-3-1.87.41-3.22,1-5.37.25l3.15-1.63-5.68-1.42c.68-.84,2.6.23,2.92-1.44,3.42.54,6.64-1.81,4.16-5.51l-.67,1.24,1.18.34c-.75,1-3.6-1.16-2.63,1.21l-2,.13.65-1.22-1.62.07.68-.75c-.9-.3-2.93.35-3-.67,6.86-.1,1.34-2.08,4.82-1.85,4.4.46,4.93-3.75,1.73-5,1.84-1.21,2.32-3.22,2.5-5.37.49,2.26-.38,4.9,2.39,6,1.76.94-.45,2.24-1.1.48-1.54,4.17,4.6,4.19,7.24,5.51-2.23,2.88-1.92.24-3.78,2.38l-.76-.79L186.26,51l.45.2-1.39.64c.33,2,2,.06,2.85.69-4,1.66,2.44.71.79,1.57,1.18,2.52,2.79.65,5.06.31l-1,1.38C194.47,55.56,196.13,54.2,197,54.8Zm-1.42,81.6c-8.5,2.26-11.65,4.25-.46,1.83-4.26,1.76,4,3.62,3.5-.09C196.82,138.91,196.36,137.68,195.54,136.4Zm-29.73-25.35c2.85,1.08,5.69.48,8.53.11C171.49,110.16,168.65,110.87,165.81,111.05ZM201.4,88.49c-1.62-1.7-6.56.78-9.3.63C195.2,89.7,198.35,89,201.4,88.49Zm-11.71,48.84c-.48-1.67-2.93-1.53-3.36.79ZM187.48,64c-.23,1.9-1.22.24-1.8,1.2a3.36,3.36,0,0,0,2.62.85Zm17,48.71h-3.53C202.18,113.93,203.24,113.86,204.45,112.74ZM192.61,56.61c-.68-1-3,.51-4.21.5C189.13,58,191.37,56.6,192.61,56.61Zm9.19,33c1.27,1.19,2.25.64,3.64,0Zm-5.94.42-.12.62,3.36.38.07-.38Z"/><path class="cls-2" d="M12.45,107.91l.65-3H26.81l-.65,3H21.24L18.43,121.3H14.8l2.8-13.39Z"/><path class="cls-2" d="M35.36,109.41l-.48,2.14,0,0a4,4,0,0,1,1.67-1.87,4.84,4.84,0,0,1,2.43-.63,7,7,0,0,1,1,.07l-.67,3.17-.69-.14a4,4,0,0,0-.69-.07,3.68,3.68,0,0,0-1.6.32,3.37,3.37,0,0,0-1.1.88,4.27,4.27,0,0,0-.71,1.25,10.22,10.22,0,0,0-.43,1.46L33,121.3H29.79l2.47-11.89Z"/><path class="cls-2" d="M48.84,116.35v.49a2.27,2.27,0,0,0,.64,1.68,2.7,2.7,0,0,0,2,.64,2.31,2.31,0,0,0,.86-.15,2.55,2.55,0,0,0,.67-.38,2.85,2.85,0,0,0,.51-.53l.4-.57h3.26a8.63,8.63,0,0,1-.91,1.77A5.28,5.28,0,0,1,55,120.57a5.15,5.15,0,0,1-1.71.78,9.61,9.61,0,0,1-2.27.25,7,7,0,0,1-2.17-.32,4.29,4.29,0,0,1-2.74-2.6,6.26,6.26,0,0,1-.38-2.26,8.27,8.27,0,0,1,.46-2.75,7.62,7.62,0,0,1,1.3-2.34,6.21,6.21,0,0,1,2.06-1.63,6,6,0,0,1,2.74-.61,7.35,7.35,0,0,1,2.26.32,4.55,4.55,0,0,1,1.75,1A4.45,4.45,0,0,1,57.41,112a6.08,6.08,0,0,1,.4,2.26,9.65,9.65,0,0,1-.19,1.87H48.86A1.5,1.5,0,0,0,48.84,116.35Zm5.74-3.18a2.53,2.53,0,0,0-.31-.82,1.66,1.66,0,0,0-.67-.58,2.51,2.51,0,0,0-1.15-.22,3.51,3.51,0,0,0-1.22.2,3.15,3.15,0,0,0-.92.56,3,3,0,0,0-.65.8,5.7,5.7,0,0,0-.45,1h5.45A5.5,5.5,0,0,0,54.58,113.17Z"/><path class="cls-2" d="M68.94,116.35v.49a2.31,2.31,0,0,0,.64,1.68,2.7,2.7,0,0,0,2,.64,2.31,2.31,0,0,0,.86-.15,2.55,2.55,0,0,0,.67-.38,2.85,2.85,0,0,0,.51-.53l.4-.57h3.27a8.65,8.65,0,0,1-.92,1.77,5.28,5.28,0,0,1-1.27,1.27,5.15,5.15,0,0,1-1.71.78,9.55,9.55,0,0,1-2.27.25,7.06,7.06,0,0,1-2.17-.32,4.29,4.29,0,0,1-2.74-2.6,6.26,6.26,0,0,1-.38-2.26,8.53,8.53,0,0,1,.46-2.75,7.62,7.62,0,0,1,1.3-2.34,6.21,6.21,0,0,1,2.06-1.63,6,6,0,0,1,2.74-.61,7.3,7.3,0,0,1,2.26.32,4.55,4.55,0,0,1,1.75,1A4.45,4.45,0,0,1,77.51,112a5.88,5.88,0,0,1,.4,2.26,10.45,10.45,0,0,1-.18,1.87H69A1.5,1.5,0,0,0,68.94,116.35Zm5.74-3.18a2.53,2.53,0,0,0-.31-.82,1.66,1.66,0,0,0-.67-.58,2.51,2.51,0,0,0-1.15-.22,3.51,3.51,0,0,0-1.22.2,3.15,3.15,0,0,0-.92.56,3,3,0,0,0-.65.8,5.7,5.7,0,0,0-.45,1h5.45A5.5,5.5,0,0,0,74.68,113.17Z"/><path class="cls-2" d="M91,109.41l-.37,1.65h0a5.09,5.09,0,0,1,4.16-2c2.32,0,3.47,1.06,3.47,3.19a3,3,0,0,1,0,.47c0,.2-.07.39-.11.59s-.07.39-.11.56a3.76,3.76,0,0,0-.08.43l-1.47,7H93.25l1.45-7c0-.18.07-.43.13-.74a4.75,4.75,0,0,0,.08-.71,1,1,0,0,0-.5-.87,1.82,1.82,0,0,0-1.07-.35A2.86,2.86,0,0,0,92,112a3.2,3.2,0,0,0-1,.75,4.07,4.07,0,0,0-.67,1.06A5.92,5.92,0,0,0,90,115l-1.34,6.33H85.43l2.46-11.89Z"/><path class="cls-2" d="M107.34,113.63a7.08,7.08,0,0,1,1.36-2.36,6.37,6.37,0,0,1,2.15-1.6,6.69,6.69,0,0,1,2.85-.58,7.58,7.58,0,0,1,2.24.31,4.71,4.71,0,0,1,1.76.93,4.1,4.1,0,0,1,1.14,1.56,5.62,5.62,0,0,1,.4,2.23,9.1,9.1,0,0,1-.47,2.94,7.1,7.1,0,0,1-1.37,2.38,6.37,6.37,0,0,1-2.17,1.58,6.9,6.9,0,0,1-2.91.58,5.88,5.88,0,0,1-4-1.28,4.77,4.77,0,0,1-1.48-3.83A8.45,8.45,0,0,1,107.34,113.63Zm2.94,3.87a2.52,2.52,0,0,0,.45.86,2.22,2.22,0,0,0,.74.58,2.18,2.18,0,0,0,1,.22,2.51,2.51,0,0,0,1.57-.49,4.12,4.12,0,0,0,1.09-1.25,6.07,6.07,0,0,0,.63-1.62,6.91,6.91,0,0,0,.2-1.63,3.09,3.09,0,0,0-.54-1.91,2.18,2.18,0,0,0-1.85-.71A2.51,2.51,0,0,0,112,112a4,4,0,0,0-1.07,1.23,6.18,6.18,0,0,0-.62,1.6,6.93,6.93,0,0,0-.21,1.62A3.33,3.33,0,0,0,110.28,117.5Z"/><path class="cls-2" d="M135.92,109.41l-.51,2.18h-2.32l-1.22,5.91a3,3,0,0,0-.07.34,1.22,1.22,0,0,0,0,.22.94.94,0,0,0,.11.49.84.84,0,0,0,.26.27.88.88,0,0,0,.36.1h.38a9,9,0,0,0,1.17-.07l-.55,2.51-1,.08c-.34,0-.68,0-1,0a6.09,6.09,0,0,1-1.13-.1,3,3,0,0,1-1-.37,2,2,0,0,1-.71-.72,2.19,2.19,0,0,1-.24-1.2,3.46,3.46,0,0,1,0-.52c0-.19.07-.39.12-.61l1.33-6.37H127.7l.51-2.18h2.09l.74-3.61h3.27l-.74,3.61Z"/><path class="cls-2" d="M145.94,116.35v.49a2.28,2.28,0,0,0,.65,1.68,2.7,2.7,0,0,0,2,.64,2.31,2.31,0,0,0,.86-.15,2.91,2.91,0,0,0,.67-.38,2.8,2.8,0,0,0,.5-.53c.15-.2.28-.39.4-.57h3.27a8.65,8.65,0,0,1-.92,1.77,5.17,5.17,0,0,1-3,2,9.55,9.55,0,0,1-2.27.25,7.06,7.06,0,0,1-2.17-.32,4.42,4.42,0,0,1-1.67-1,4.58,4.58,0,0,1-1.07-1.62,6.26,6.26,0,0,1-.37-2.26,8.27,8.27,0,0,1,.46-2.75,7.6,7.6,0,0,1,1.29-2.34,6.21,6.21,0,0,1,2.06-1.63,6,6,0,0,1,2.74-.61,7.41,7.41,0,0,1,2.27.32,4.51,4.51,0,0,1,1.74,1,4.34,4.34,0,0,1,1.13,1.63,5.88,5.88,0,0,1,.4,2.26,10.45,10.45,0,0,1-.18,1.87H146A.75.75,0,0,0,145.94,116.35Zm5.74-3.18a2.32,2.32,0,0,0-.31-.82,1.54,1.54,0,0,0-.67-.58,2.51,2.51,0,0,0-1.15-.22,3.45,3.45,0,0,0-1.21.2,3.18,3.18,0,0,0-1.58,1.36,5.7,5.7,0,0,0-.45,1h5.45A4.6,4.6,0,0,0,151.68,113.17Z"/></g></g></svg>