<svg xmlns="http://www.w3.org/2000/svg" viewBox="0 0 216.49 216.49"><defs><style>.cls-1{fill:#417053;}.cls-2{fill:#f8f8f8;}</style></defs><g id="Layer_2" data-name="Layer 2"><g id="Layer_1-2" data-name="Layer 1"><rect class="cls-1" width="216.49" height="216.49" rx="24.52"/><path class="cls-2" d="M121.72,54.22l-1.24,1c1.25.23,2.77-.22,3,1.55l-4.7.23L120,58.24h-4.65c.07.64,1.42.35,2,.6-2.36.3-4.75.08-7.21,1.32,4.11,1.1,7.45-.55,12-.2l-3.62,2.19,5.71.31-5,2.52,1.85.93c-2,.39-4.81-.39-6,.64l2.72.92-1.28.74,2.16.1,0,.39c-14.14-1.91-6.35,3.78,2.14,1.31l-1,.95L125.1,72c-5.25.6-2.27,1.6,1.17,2.09l-3.72.63.33.75c-1-.31-3.33.76-3.58-.71-1.9-.57-8.62-.56-8.49,2.81l3.45-.69-.27.65,6,1.33c-.25.25-.61.4-.44.77a5.9,5.9,0,0,1,4.24,0c-2.77,1.74-5.57.71-8.5,1.3l.54,1.52c-2-.81-5.81-2.74-4.84,1,2.87.78,5.34-.66,8.19-.85,1.2,2.58-3.2,1.88-4.64,2.52,4.05,1,9.45-1.87,14-1.33l-.41,1,5.3.88L129.71,87c.1.52,1.72.47.32,1.38,2-.47,2,.06,2.57,1.36l-5.55,1.61c4.89.36,2.74,2.35-.19,1.94l-1.06.87c-.31-1-2.54-.75-3.68-1.28l2.37-.52L117.91,91c.19.82.19.82,2.54,1.61-.58,2.45-2.94-1.51-4.77.53-1.51-1-3.89-4-3.89-.32l-1.61-.51.91,1.8c-2.68,4.15,6.75.63,8.21,2.54l-2.9.5c3.18,2.49,8.67-1.32,12.94.91-.9.6-2.55-.19-2.26,1.5-2.42-1.21-4.58-.49-7.06.08l.86,1.61-4.37-.51,1.4,2-5-2c.31,1.16-1.72,1.39-2.67,2.26-.18,1.09.47,1.81,1.17,1.22,2.16-1.16,4.28.13,6.39-1.21,4.85-3,11.61-3.55,16.61-.89-2.42.38-5.6,0-7.66.77l5.56.89c-.57,1.81-5.66-.74-6.1,1.19a8.9,8.9,0,0,1,6.48,1h-3.37l.4,1.34-8.1-1.69.89,1.28c-2.1-.51-4-1.12-6.25-.16l6,1c-.64,2.45-3.93.17-5.86.21l-.09.37c3.4,1.73,6.69,1.54,10.57.41v1.37l4.79-.22v.92h3.4l-.55.72,3.05.39c-1.74.35-8.52.43-4.55,1.62l-4.35,1,1,1.08c-2.93.25-8.59-2.78-10.06-.43l-3.18-2.14.27,1.46c-1.63-.54-2.72-2.06-3.52.13-.18-1.54-.75-1.93-2-2.52-5.29,12.21,13.59,9.8,20.34,9.93l-3.09.71c0,.71,1.44,0,1.57.66-2,.39-4.48,1.09-1,1.24l0,.43a51.35,51.35,0,0,1-7.87-.8c1.36,3.11-2,.58-3.45.24l.16,1.08-3.67-1.78c2.24,4.26-.95.44-3,.74-2.17,5,4.16,5.54,7.9,6-.45.2-1.47-.05-1.46.56,6.24,1.06,12.74,2.07,19,1l-1.77,1.25,3,.76c-1.18,1-4.58-.65-5.84.28,1.17.33,2.49-.22,2.43,1.51-2.12-.2-5.25-2.39-6.62-1.37l2.18.92-1.77.39c4.3,2.53,8.7,1.49,13,1.36-1.59.6-2.38,2.52-4.67,2,4.65,3.55-5.06-1.43-5,1.36-2-.82-3.57-1.49-5.61-2.39-.49,2.06-.92,3.52-1.51.62-.33,2.69-3.26,1.76-4.87,2.72,2.89,2.3,6.67-.91,10-1l-.29.93,1.88.24-1.43,1,5.27.41c-4.38,3-9.72-1.77-10.57.71a8.06,8.06,0,0,1,5.15,1.45c-3.2,1-8.21-1.59-11.85-1.31a7.84,7.84,0,0,0,4.86,1.34v.43h-4.18l.05.26-2.05-1.19-.14,2.12c-.81-1-.72-1.89-1.95-1.16l-.24-1.35-1,.32c-.3-5.26-4.53,14.93,3,4.48,1.2,2.2-2.57,3.41-3.41,5.22-.86,9.56,1.07,19.53.75,29.26h-5.73c.07-10.82.37-21.64.26-32.45a2.15,2.15,0,0,0-1.53-2.33c-3.45-1.63-1-1.67,1.36-.7.07-3.84.29-5.42-2.67-2.17l1.58-3.32c-2.92.74-1.07,4.36-4.3,4.31l.38-1.35-2.59.52c.55-1.29,2.94-1.47,2.47-3.26-1.5.57-6.84,2.78-3.39.25-3.6-.37-3.33,3.88-5.81,3.44l.81-1.45c-.73.08-1.48.77-2,.29l1.18-.59c-.35-.53-1.28-.12-1.87-.24.4.54-.77.83-1.17,1.06a2.4,2.4,0,0,0-2.14-1.57l4.5-.9-.11-.43c-3.36.1-5.32,2.18-8.74.32.71-.29,2,0,2.2-.71-1-.42-3.18-.1-3.64-1,2-.14,3.42-.16,5.67-.13-.87-.76-2.38-1-2.28-1.79,3.3,2.78,26.83,1.71,20.55-4.17-2.08-.19-3.52,1.84-5.62,2.38l.7-1.79c-.68.49-3.12,2.1-2.48.1l-3.63.84.07-1.07L94,138.36c-1-2-1.72-.2-2.91-.3,3.51-3.4-.92.3-1.85-2l3.17-1.18c-1.64-1-5.19,1.93-7.25,1.61L87,134.93c-1.91-.41-5.36,2.75-6.82,1.47.65-.47,2.08-.55,2.29-1.29H79.36c-.09-.88,2-.27,1.63-1.3H75.23c8.94-3.86,23.7-.18,32.42-5.39.38-2.12,0-3.71-1.74-1.23l-.49-1.23-1.64,1.7c0-1.35-.83-1.12-1.76-.77l.5-1.29A8.21,8.21,0,0,0,95.43,128c.17-1.81-1.85-.53-2.07-1.43,6.69-1.85-7.08.5-9.15-1.7,6.37.1,3.48-.42-.74-1.95H95.83l-5.56-3.27c2.73.06,8.42,2.75,11.14,1-.56-.27-1.86,0-2-.66,4.15.23,10.11.19,7.77-5.66-2.56.38-6.52,6.55-4.43,1.1-2-.85-3.76,1.53-5.42.12l4.53-1.91-.35-.61c-5,3.79-8.21-.06-13.57.46l0-.55,3.86-.34c-1-2.06-3.11-.86-4.65-2.49l2.27-.58c-1.64-.73-2.07-2.61-4.43-2.32,3-1.57,7.11,1.08,10.43-.59,1-.1,1.68.36,2.41-.8,2,.46,9.57,1.33,9.82-1.66-.2-.87.73-2.59-.77-2.53-.49-2.59-2.81,3.27-6.4,1.93l.94-.6c-3.37.57-6.63,1.62-10.17.53l5-1.34c-5.6-2.07,1.45.11,0-2.36h4.25l-.67-1.05,2.31-.44c-3.53-1.4-7.49,2-11.1,1.9,2.66-1.71-4.15-.2-5.49-.3l0-.48,3.2-.58L87,97.94c2-.43,4.62,1.09,5.17-1.11l-1.37-.11c1.73-1.33,5.45.27,7.93-.15-8.93-4.11,9,1.66,9-3.06-.78-2.42-5.66,2.87-4.82-.34l-6.1-1.32c2.31-1.74,12.32.87,11-3.8-1.76-1.32-3.43-.47-5.4.07.58.36,1,.3,1.05.86-2.43.18-5.39,1.49-7.59,1.06,3.92-2.26,1.63-2.82-1.59-2.49l.43-.64-1.61-.32c3.82-1.8,8.24-.53,11.81-2.34-.72-2.41,4.63-1.44,1.44-2.42l1.38-.88c-1.57-1.31-9.19,4.68-8.52,1.86l-5.21.7,1.43,1.07c-2,0-2.47-.18-2.66-1.12-.95-.88-3.44-1.23-2.89-2.36,1.77.72,3.54,1.46,5.8.17L92.6,80.8c2.7-1.19,5.22.34,8-.78-3.52-3.28,4.2-.45,5.82-2.64,5.05-5.38-5.67-2.81.05-4.41-2.39-2.1-5.53,1.61-9.21.56l1.84-1.21-5.68-.65c.79-1.1,8.25.36,3.74-1.54l4.51-.68-1.24-1.4c2-.23,4.92,1.22,3.2-1.17,2.06.08,7.29,1,2.38-1.1.87-.41,2.83-.18,1.92-2-2.16-.88-2.82,1.64-4.79,1.54a5.23,5.23,0,0,0-5.18-2.49l1.44-.28c-4.21-2.16,1.85-.87,4-.82l-.62-1c3.72.46,2.59-.85,5.19-.87V57.91c-.65,0-1.5.44-2-.09,1.1-.7,2.92-1.07,1.81-3-1.87.41-3.23,1-5.37.25l3.14-1.63-5.67-1.41c.68-.85,2.6.22,2.91-1.44,3.42.53,6.64-1.82,4.17-5.51l-.67,1.23,1.18.35c-.76,1-3.61-1.17-2.63,1.21l-2,.12.64-1.21-1.61.06.68-.74c-.9-.3-2.94.34-3-.68,6.86-.09,1.33-2.08,4.82-1.85,4.39.47,4.92-3.75,1.73-5,1.84-1.2,2.31-3.21,2.5-5.37.49,2.26-.38,4.91,2.38,6,1.76,1-.44,2.24-1.1.49-1.53,4.17,4.61,4.19,7.24,5.51-2.22,2.87-1.92.23-3.77,2.37l-.76-.79L111,50.45l.45.2-1.4.64c.33,2,2,.07,2.86.7-4,1.66,2.43.7.78,1.57,1.18,2.52,2.8.65,5.07.31l-1,1.38C119.24,55,120.9,53.63,121.72,54.22Zm-1.41,81.61c-8.5,2.25-11.65,4.25-.46,1.83-4.26,1.75,4,3.61,3.5-.1C121.58,138.33,121.13,137.1,120.31,135.83ZM90.58,110.47c2.85,1.09,5.68.48,8.52.12C96.26,109.59,93.42,110.29,90.58,110.47Zm35.59-22.55c-1.62-1.71-6.56.78-9.3.62C120,89.13,123.11,88.4,126.17,87.92Zm-11.72,48.83c-.48-1.66-2.92-1.53-3.35.8Zm-2.2-73.29c-.24,1.89-1.22.23-1.81,1.19a3.3,3.3,0,0,0,2.63.85Zm17,48.7h-3.54C127,113.35,128,113.29,129.22,112.16ZM117.38,56c-.69-1-3,.51-4.21.5C113.89,57.41,116.14,56,117.38,56Zm9.18,33c1.27,1.2,2.26.65,3.65,0Zm-5.93.43-.12.61,3.35.38.07-.37Z"/></g></g></svg>