<svg xmlns="http://www.w3.org/2000/svg" viewBox="0 0 612 96.71"><defs><style>.cls-1,.cls-3{fill:#f8f8f8;}.cls-2{fill:none;stroke:#416f51;}.cls-2,.cls-3{stroke-miterlimit:10;}.cls-3{stroke:#416e50;}</style></defs><g id="Layer_2" data-name="Layer 2"><g id="Layer_1-2" data-name="Layer 1"><rect class="cls-1" width="612" height="96.71"/><path class="cls-2" d="M526,19.48l-.69.56c.69.13,1.54-.13,1.63.85l-2.6.13.72.68h-2.57c0,.35.78.19,1.09.33a11.08,11.08,0,0,0-4,.73c2.28.61,4.13-.3,6.66-.11l-2,1.21,3.16.17-2.75,1.4,1,.51c-1.1.22-2.65-.22-3.33.36l1.5.51-.71.4,1.2.06v.22c-7.82-1.06-3.51,2.09,1.18.72l-.54.53,2.9.59c-2.9.33-1.25.88.65,1.15l-2.05.35.18.42c-.56-.17-1.84.42-2-.39-1-.32-4.76-.31-4.7,1.55l1.91-.38-.15.36,3.29.73c-.14.14-.33.23-.24.43a3.34,3.34,0,0,1,2.35,0c-1.54,1-3.08.4-4.71.72l.31.84c-1.12-.45-3.22-1.51-2.68.56,1.58.43,3-.36,4.52-.47.67,1.43-1.77,1-2.56,1.4,2.24.52,5.23-1,7.76-.74l-.23.54,2.93.48-2,.7c.06.29,1,.26.18.77,1.1-.27,1.12,0,1.42.75L528.9,40c2.71.2,1.52,1.3-.1,1.07l-.59.48c-.17-.57-1.4-.41-2-.71l1.31-.28-3.64-.74c.11.45.11.45,1.4.89-.32,1.36-1.62-.83-2.63.29-.83-.54-2.15-2.21-2.15-.17l-.89-.28.5,1c-1.48,2.3,3.73.35,4.54,1.41l-1.61.28c1.77,1.37,4.8-.74,7.16.5-.5.33-1.41-.11-1.25.83-1.34-.67-2.53-.28-3.9,0l.47.89-2.42-.28.78,1.08-2.74-1.11c.16.65-1,.77-1.48,1.25-.1.61.25,1,.64.68,1.2-.64,2.37.07,3.54-.67A9.56,9.56,0,0,1,533,46c-1.34.21-3.1,0-4.23.42l3.07.5c-.32,1-3.13-.41-3.37.66a4.86,4.86,0,0,1,3.58.54h-1.87l.23.74-4.48-.94.49.71A5.07,5.07,0,0,0,523,48.5l3.3.58c-.35,1.36-2.17.09-3.24.12l0,.2a7.42,7.42,0,0,0,5.84.23v.76l2.65-.12v.51h1.88l-.3.4,1.69.21c-1,.19-4.72.24-2.52.9l-2.4.58.56.59c-1.62.15-4.75-1.53-5.56-.23L523,52l.15.81c-.91-.3-1.51-1.14-2,.07-.1-.85-.42-1.06-1.1-1.39-2.93,6.76,7.52,5.42,11.25,5.49l-1.71.39c0,.4.79,0,.86.37-1.09.22-2.47.6-.52.69v.24a28.8,28.8,0,0,1-4.36-.45c.76,1.73-1.09.33-1.91.13l.09.6-2-1c1.24,2.36-.53.24-1.67.41-1.21,2.75,2.29,3.07,4.36,3.3-.25.11-.81,0-.8.31,3.45.58,7,1.14,10.5.54l-1,.69,1.65.42c-.65.54-2.53-.36-3.23.16.65.18,1.38-.13,1.35.83-1.18-.11-2.91-1.32-3.66-.76l1.2.51-1,.22c2.38,1.39,4.81.82,7.2.75-.88.33-1.32,1.39-2.58,1.11,2.57,2-2.8-.79-2.77.76-1.12-.46-2-.83-3.1-1.33-.27,1.14-.51,1.95-.84.34-.18,1.49-1.8,1-2.69,1.51,1.6,1.27,3.69-.5,5.5-.57l-.15.52,1,.13-.8.55,2.92.23c-2.42,1.65-5.37-1-5.85.39a4.42,4.42,0,0,1,2.85.8c-1.77.55-4.54-.88-6.55-.72a4.31,4.31,0,0,0,2.68.74v.24h-2.31l0,.14L523,69.57l-.08,1.18c-.45-.55-.4-1-1.08-.64l-.14-.76-.54.18c-.17-2.91-2.51,8.27,1.68,2.48.66,1.22-1.42,1.89-1.88,2.89-.48,5.29.59,10.81.41,16.19h-3.17c0-6,.21-12,.14-18a1.19,1.19,0,0,0-.84-1.29c-1.91-.89-.53-.92.75-.38,0-2.12.16-3-1.48-1.2l.88-1.84c-1.62.41-.59,2.41-2.38,2.39l.21-.75-1.43.28c.31-.71,1.63-.8,1.36-1.79-.83.31-3.78,1.53-1.87.13-2-.2-1.84,2.15-3.21,1.91l.45-.81c-.41,0-.82.43-1.09.16l.66-.32c-.2-.3-.72-.07-1-.14.22.3-.43.46-.65.59a1.34,1.34,0,0,0-1.18-.87l2.49-.5-.06-.24c-1.86.06-2.94,1.21-4.83.18.39-.16,1.12,0,1.21-.39-.58-.23-1.76,0-2-.55,1.13-.08,1.89-.08,3.13-.07-.47-.42-1.31-.54-1.25-1,1.82,1.54,14.83,1,11.36-2.31-1.16-.1-1.95,1-3.11,1.32l.38-1c-.37.27-1.72,1.16-1.36.06l-2,.46,0-.59L510.63,66c-.55-1.11-.95-.11-1.61-.16,1.94-1.88-.51.16-1-1.13l1.75-.65c-.9-.57-2.87,1.07-4,.89l1-.85c-1.06-.22-3,1.52-3.77.82.36-.26,1.15-.31,1.26-.72h-1.73c-.06-.48,1.08-.15.9-.72h-3.18c4.94-2.13,13.1-.09,17.92-3,.21-1.17,0-2.05-1-.68l-.28-.68-.9.94c0-.75-.46-.62-1-.43l.28-.71a4.54,4.54,0,0,0-3.92,1.3c.09-1-1-.29-1.14-.79,3.7-1-3.91.27-5.06-.94,3.52.05,1.92-.23-.41-1.08h6.83l-3.07-1.81c1.51,0,4.65,1.52,6.16.56-.31-.14-1,0-1.08-.36,2.3.13,5.59.1,4.29-3.13-1.41.21-3.6,3.62-2.45.61-1.11-.47-2.07.85-3,.07L515,52.34l-.2-.34c-2.78,2.1-4.54,0-7.5.25V52l2.13-.19c-.56-1.14-1.72-.47-2.57-1.38l1.26-.32c-.91-.4-1.15-1.44-2.46-1.28,1.69-.87,3.94.6,5.78-.33.57-.06.92.2,1.33-.44,1.12.26,5.29.73,5.43-.92-.12-.48.4-1.43-.43-1.4-.27-1.43-1.56,1.81-3.54,1.07l.52-.34c-1.86.32-3.66.9-5.62.3l2.78-.74c-3.09-1.14.8.06,0-1.31h2.35l-.37-.58,1.28-.24c-2-.78-4.15,1.12-6.15,1,1.48-.95-2.29-.11-3-.17l0-.26,1.77-.32-.95-.49c1.09-.23,2.56.61,2.87-.61l-.76-.06c.95-.73,3,.15,4.38-.08-4.93-2.28,5,.92,5-1.7-.44-1.34-3.13,1.59-2.67-.18l-3.37-.74c1.27-1,6.81.49,6.08-2.09-1-.74-1.89-.27-3,0,.32.2.55.17.58.48-1.35.09-3,.82-4.2.58,2.17-1.24.9-1.56-.87-1.38l.23-.35-.89-.18c2.11-1,4.56-.29,6.53-1.29-.4-1.33,2.56-.8.8-1.34l.76-.49c-.87-.72-5.08,2.59-4.71,1l-2.88.39.79.59c-1.12,0-1.36-.1-1.47-.62-.53-.49-1.9-.68-1.6-1.3a3.3,3.3,0,0,0,3.21.09l-1.73-.26c1.49-.66,2.88.19,4.4-.43-2-1.82,2.32-.25,3.22-1.46,2.79-3-3.14-1.56,0-2.44-1.32-1.16-3,.89-5.09.31l1-.67-3.14-.36c.44-.61,4.56.2,2.07-.85l2.49-.38-.69-.78c1.13-.12,2.73.68,1.77-.64,1.14,0,4,.57,1.32-.61.48-.23,1.57-.1,1.06-1.13-1.19-.49-1.56.91-2.65.86a2.87,2.87,0,0,0-2.86-1.38l.8-.16c-2.34-1.2,1-.48,2.19-.45l-.34-.54c2.06.25,1.44-.47,2.87-.48V21.51c-.36,0-.83.25-1.08,0,.61-.39,1.61-.6,1-1.65a4.55,4.55,0,0,1-3,.14l1.74-.9-3.14-.78c.37-.47,1.44.12,1.61-.8,1.89.3,3.67-1,2.3-3.05l-.37.69.66.18c-.42.56-2-.64-1.46.68l-1.12.06.36-.67-.9,0,.38-.41c-.5-.17-1.62.19-1.68-.38,3.79,0,.74-1.15,2.66-1,2.43.25,2.73-2.08,1-2.78a3.59,3.59,0,0,0,1.38-3c.27,1.25-.21,2.71,1.32,3.34,1,.53-.24,1.24-.61.27-.85,2.31,2.55,2.32,4,3-1.23,1.59-1.07.13-2.09,1.31l-.42-.43-.81,2,.24.11-.77.35c.19,1.13,1.1,0,1.58.39-2.23.92,1.35.39.43.87.66,1.39,1.55.36,2.81.17l-.57.76C524.58,19.9,525.5,19.14,526,19.48Zm-.78,45.15c-4.7,1.25-6.44,2.35-.26,1-2.35,1,2.22,2,1.94,0C525.88,66,525.63,65.34,525.18,64.63Zm-16.44-14c1.57.6,3.14.27,4.71.06C511.88,50.11,510.31,50.5,508.74,50.6Zm19.68-12.48c-.9-.94-3.63.43-5.15.34A14.91,14.91,0,0,0,528.42,38.12Zm-6.48,27c-.27-.92-1.62-.84-1.86.44Zm-1.22-40.56c-.13,1.05-.68.14-1,.67a1.89,1.89,0,0,0,1.45.47Zm9.38,27h-2A1.22,1.22,0,0,0,530.1,51.53Zm-6.54-31c-.38-.57-1.64.28-2.33.28C521.63,21.24,522.87,20.47,523.56,20.48Zm5.07,18.26c.71.66,1.25.35,2,0Zm-3.28.23-.06.34,1.85.21,0-.21Z"/><path class="cls-3" d="M59.38,40.19l1.67-7.92H96.81l-1.68,7.92H82.29L75,75.11H65.49l7.32-34.92Z"/><path class="cls-3" d="M125.13,44.09l-1.26,5.58.12.12a10.2,10.2,0,0,1,4.35-4.89,12.62,12.62,0,0,1,6.33-1.65,19.52,19.52,0,0,1,2.64.18l-1.74,8.28-1.8-.36a9.16,9.16,0,0,0-1.8-.18,9.39,9.39,0,0,0-4.17.84,8.47,8.47,0,0,0-2.88,2.28,11.67,11.67,0,0,0-1.86,3.27A26.18,26.18,0,0,0,122,61.37l-2.88,13.74h-8.46l6.42-31Z"/><path class="cls-3" d="M166.29,62.21v1.26A5.92,5.92,0,0,0,168,67.85q1.68,1.68,5.16,1.68a6,6,0,0,0,2.25-.39,6.69,6.69,0,0,0,1.74-1,7.2,7.2,0,0,0,1.32-1.38q.57-.78,1.05-1.5H188a22.25,22.25,0,0,1-2.41,4.62,13.39,13.39,0,0,1-3.3,3.33,13.63,13.63,0,0,1-4.47,2,24.19,24.19,0,0,1-5.91.66,18.35,18.35,0,0,1-5.67-.84,11.39,11.39,0,0,1-4.35-2.55,11.58,11.58,0,0,1-2.79-4.23,16,16,0,0,1-1-5.88,21.67,21.67,0,0,1,1.2-7.17,19.83,19.83,0,0,1,3.39-6.12,16.26,16.26,0,0,1,5.37-4.26,15.74,15.74,0,0,1,7.14-1.59,19.69,19.69,0,0,1,5.92.84,12.14,12.14,0,0,1,4.55,2.55,11.75,11.75,0,0,1,3,4.26,15.63,15.63,0,0,1,1,5.91,26.63,26.63,0,0,1-.48,4.86H166.35A2.78,2.78,0,0,0,166.29,62.21Zm15-8.31a6.17,6.17,0,0,0-.82-2.13,4.21,4.21,0,0,0-1.74-1.53,6.74,6.74,0,0,0-3-.57,8.72,8.72,0,0,0-3.18.54,8,8,0,0,0-2.4,1.44,8.29,8.29,0,0,0-1.71,2.1,16,16,0,0,0-1.17,2.52h14.23A14.4,14.4,0,0,0,181.27,53.9Z"/><path class="cls-3" d="M224.73,62.21v1.26a5.92,5.92,0,0,0,1.68,4.38q1.68,1.68,5.16,1.68a6.1,6.1,0,0,0,2.25-.39,6.69,6.69,0,0,0,1.74-1,7.2,7.2,0,0,0,1.32-1.38q.57-.78,1.05-1.5h8.52a21.77,21.77,0,0,1-2.4,4.62,13.39,13.39,0,0,1-3.3,3.33,13.63,13.63,0,0,1-4.47,2,24.19,24.19,0,0,1-5.91.66,18.35,18.35,0,0,1-5.67-.84,11.39,11.39,0,0,1-4.35-2.55,11.58,11.58,0,0,1-2.79-4.23,16,16,0,0,1-1-5.88,21.67,21.67,0,0,1,1.2-7.17,19.83,19.83,0,0,1,3.39-6.12,16.26,16.26,0,0,1,5.37-4.26,15.74,15.74,0,0,1,7.14-1.59,19.63,19.63,0,0,1,5.91.84,12.11,12.11,0,0,1,4.56,2.55,11.61,11.61,0,0,1,2.94,4.26,15.43,15.43,0,0,1,1,5.91,26.63,26.63,0,0,1-.48,4.86H224.79A2.78,2.78,0,0,0,224.73,62.21Zm15-8.31a6,6,0,0,0-.81-2.13,4.21,4.21,0,0,0-1.74-1.53,6.74,6.74,0,0,0-3-.57,8.69,8.69,0,0,0-3.18.54,8,8,0,0,0-2.4,1.44,8.29,8.29,0,0,0-1.71,2.1,16,16,0,0,0-1.17,2.52h14.22A13.39,13.39,0,0,0,239.7,53.9Z"/><path class="cls-3" d="M288.33,44.09l-1,4.32h.12a13.25,13.25,0,0,1,10.86-5.16q9.06,0,9.06,8.34a8.1,8.1,0,0,1-.12,1.23q-.12.75-.27,1.53t-.3,1.47q-.15.69-.21,1.11l-3.84,18.18h-8.52l3.78-18.18q.12-.72.33-1.92a11.58,11.58,0,0,0,.21-1.86,2.69,2.69,0,0,0-1.29-2.28,4.78,4.78,0,0,0-2.79-.9,7.36,7.36,0,0,0-3.39.75,8.36,8.36,0,0,0-2.52,2,10.78,10.78,0,0,0-1.74,2.76,16.92,16.92,0,0,0-1.05,3.18l-3.48,16.5h-8.46l6.42-31Z"/><path class="cls-3" d="M336.9,55.1A18.54,18.54,0,0,1,340.44,49a16.67,16.67,0,0,1,5.61-4.17,17.49,17.49,0,0,1,7.44-1.53,20.08,20.08,0,0,1,5.85.81,12.77,12.77,0,0,1,4.59,2.43,10.78,10.78,0,0,1,3,4.08A14.76,14.76,0,0,1,368,56.39,23.33,23.33,0,0,1,366.72,64a18.17,18.17,0,0,1-3.57,6.21,16.57,16.57,0,0,1-5.67,4.14,18.46,18.46,0,0,1-7.59,1.5q-6.48,0-10.35-3.33t-3.87-10A22.43,22.43,0,0,1,336.9,55.1Zm7.68,10.11a6.55,6.55,0,0,0,1.17,2.22A5.76,5.76,0,0,0,347.67,69a5.83,5.83,0,0,0,2.64.57,6.63,6.63,0,0,0,4.11-1.29A10.52,10.52,0,0,0,357.24,65a15.91,15.91,0,0,0,1.65-4.23,18.54,18.54,0,0,0,.54-4.26,8,8,0,0,0-1.41-5q-1.41-1.86-4.83-1.86A6.53,6.53,0,0,0,349.14,51a10.29,10.29,0,0,0-2.79,3.21,16.14,16.14,0,0,0-1.62,4.17,18.17,18.17,0,0,0-.54,4.23A8.88,8.88,0,0,0,344.58,65.21Z"/><path class="cls-3" d="M417.45,44.09l-1.32,5.7h-6.06l-3.18,15.42q-.12.48-.18.87a4.21,4.21,0,0,0-.06.57,2.53,2.53,0,0,0,.27,1.29,1.9,1.9,0,0,0,.69.69,2.1,2.1,0,0,0,.93.27l1,0a25.66,25.66,0,0,0,3.06-.18l-1.44,6.54q-1.32.12-2.64.21t-2.7.09a16.41,16.41,0,0,1-3-.27,8,8,0,0,1-2.64-1,5.11,5.11,0,0,1-1.86-1.89,5.84,5.84,0,0,1-.63-3.12,8.63,8.63,0,0,1,.12-1.35q.12-.75.3-1.59l3.48-16.62H396l1.32-5.7h5.46l1.92-9.42h8.52l-1.92,9.42Z"/><path class="cls-3" d="M449.61,62.21v1.26a5.92,5.92,0,0,0,1.68,4.38q1.68,1.68,5.16,1.68a6.1,6.1,0,0,0,2.25-.39,6.69,6.69,0,0,0,1.74-1,7.2,7.2,0,0,0,1.32-1.38q.57-.78,1.05-1.5h8.52a21.77,21.77,0,0,1-2.4,4.62,13.39,13.39,0,0,1-3.3,3.33,13.63,13.63,0,0,1-4.47,2,24.19,24.19,0,0,1-5.91.66,18.35,18.35,0,0,1-5.67-.84,11.39,11.39,0,0,1-4.35-2.55,11.58,11.58,0,0,1-2.79-4.23,16,16,0,0,1-1-5.88,21.67,21.67,0,0,1,1.2-7.17A19.83,19.83,0,0,1,446,49.1a16.26,16.26,0,0,1,5.37-4.26,15.74,15.74,0,0,1,7.14-1.59,19.63,19.63,0,0,1,5.91.84A12.11,12.11,0,0,1,469,46.64,11.61,11.61,0,0,1,472,50.9,15.43,15.43,0,0,1,473,56.81a26.63,26.63,0,0,1-.48,4.86H449.67A2.78,2.78,0,0,0,449.61,62.21Zm15-8.31a6,6,0,0,0-.81-2.13A4.21,4.21,0,0,0,462,50.24a6.74,6.74,0,0,0-3-.57,8.69,8.69,0,0,0-3.18.54,8,8,0,0,0-2.4,1.44,8.29,8.29,0,0,0-1.71,2.1,16,16,0,0,0-1.17,2.52h14.22A13.39,13.39,0,0,0,464.58,53.9Z"/></g></g></svg>