<?xml version="1.0" standalone="no"?>
<!DOCTYPE svg PUBLIC "-//W3C//DTD SVG 20010904//EN"
 "http://www.w3.org/TR/2001/REC-SVG-20010904/DTD/svg10.dtd">
<svg version="1.0" xmlns="http://www.w3.org/2000/svg"
 width="867.000000pt" height="867.000000pt" viewBox="0 0 867.000000 867.000000"
 preserveAspectRatio="xMidYMid meet">
<metadata>
Created by potrace 1.14, written by Peter Selinger 2001-2017
</metadata>
<g transform="translate(0.000000,867.000000) scale(0.100000,-0.100000)"
fill="#000000" stroke="none">
<path d="M875 8653 c-278 -35 -530 -183 -687 -404 -65 -90 -123 -215 -155
-334 l-28 -100 -3 -3405 c-2 -2361 0 -3437 8 -3511 24 -241 116 -441 277 -603
129 -130 273 -213 458 -263 l100 -28 3420 -3 c2471 -2 3447 0 3519 8 209 24
408 113 563 254 124 112 231 292 281 472 l27 99 0 3495 c0 3283 -1 3499 -17
3562 -48 187 -137 347 -263 474 -128 130 -269 211 -455 263 l-95 26 -3460 1
c-1903 1 -3473 -1 -3490 -3z m3504 -1511 c6 -12 24 -28 40 -36 42 -22 56 -43
41 -61 -16 -19 -35 -19 -54 1 -15 14 -16 12 -16 -21 0 -59 37 -87 173 -130 64
-20 119 -40 122 -45 9 -14 -55 -60 -84 -60 -15 0 -36 -9 -46 -20 -16 -18 -20
-19 -35 -5 -15 14 -19 9 -43 -51 -15 -37 -24 -71 -21 -75 3 -5 -6 -14 -21 -21
-40 -18 -24 -33 34 -30 50 3 70 -11 31 -21 -35 -9 -22 -26 23 -29 29 -2 41 -7
39 -17 -4 -18 27 -51 48 -51 9 0 43 9 75 20 74 26 79 25 59 -5 l-17 -26 52 21
c80 31 122 23 69 -14 -22 -16 -22 -16 16 -16 43 0 76 -22 76 -52 0 -16 -9 -18
-92 -18 l-93 -1 30 -24 30 -25 -95 -1 c-52 -1 -81 -4 -65 -6 63 -9 41 -20 -64
-31 -60 -6 -124 -17 -142 -25 l-34 -14 60 -6 c36 -4 111 -1 185 8 137 16 230
19 230 8 0 -5 -28 -24 -61 -43 l-61 -35 39 -7 c21 -4 66 -7 101 -7 34 -1 62
-4 62 -9 0 -4 -42 -28 -92 -53 l-93 -46 35 -18 35 -18 -30 -9 c-16 -5 -49 -6
-72 -3 -48 7 -135 -3 -128 -15 2 -4 25 -13 51 -20 42 -12 45 -15 29 -27 -17
-12 -16 -13 13 -19 70 -14 24 -21 -111 -16 -123 4 -144 2 -156 -12 -12 -14 -8
-19 35 -38 40 -17 69 -22 154 -22 58 -1 128 3 155 8 49 9 50 8 33 -11 -17 -19
-16 -20 75 -38 97 -19 133 -35 80 -35 -39 0 -86 -17 -79 -29 5 -8 44 -20 121
-37 27 -5 28 -7 10 -14 -11 -4 -43 -11 -72 -15 -39 -5 -50 -10 -46 -21 3 -8
-1 -14 -10 -14 -8 0 -35 -3 -59 -6 -39 -5 -49 -3 -68 16 -19 19 -32 21 -111
21 -105 0 -179 -20 -209 -58 -41 -52 -32 -55 88 -28 15 4 22 1 22 -9 0 -10 29
-21 98 -36 131 -29 134 -30 129 -44 -3 -8 14 -11 62 -8 71 3 108 -10 81 -28
-31 -21 -89 -31 -202 -37 -65 -3 -118 -7 -118 -9 0 -1 4 -14 10 -28 12 -32 6
-32 -61 -5 -29 11 -68 19 -88 17 -34 -3 -36 -5 -39 -40 l-3 -38 66 0 c36 0
106 9 157 20 50 12 97 19 105 16 21 -9 15 -54 -9 -70 -13 -8 -52 -19 -88 -24
l-65 -10 53 -1 c29 0 121 13 204 29 82 17 181 30 219 30 66 0 69 -1 59 -19 -9
-18 -4 -20 63 -31 115 -19 144 -27 127 -33 -8 -4 -41 -16 -72 -27 -56 -21 -57
-21 -37 -41 10 -10 25 -19 33 -19 18 0 58 -49 53 -64 -2 -6 -39 -21 -83 -33
-43 -13 -83 -25 -89 -27 -5 -2 7 -10 28 -19 21 -9 37 -23 37 -32 0 -19 -57
-45 -97 -45 -16 0 -38 -7 -50 -15 -18 -12 -23 -13 -32 -1 -7 8 -33 17 -59 20
-72 11 -87 16 -71 27 8 5 25 9 38 9 13 0 22 2 19 5 -5 5 -192 45 -211 45 -19
0 12 -24 46 -36 21 -7 32 -17 32 -30 0 -25 -35 -30 -74 -10 -35 19 -82 21 -99
4 -8 -8 -24 -1 -66 31 -64 50 -90 51 -94 3 -4 -36 -2 -35 -37 -22 -25 10 -25
10 -11 -19 12 -23 13 -34 3 -60 -10 -27 -9 -33 3 -41 8 -5 81 -10 161 -10 109
0 150 -4 164 -14 18 -13 17 -15 -20 -21 -80 -13 -83 -21 -14 -36 31 -7 74 -5
158 7 122 17 231 15 270 -6 19 -10 21 -14 10 -21 -8 -5 -27 -9 -42 -9 -21 0
-30 -6 -34 -21 -5 -17 -10 -19 -37 -12 -45 11 -154 8 -204 -6 l-42 -12 16 -30
c10 -19 21 -29 30 -25 8 3 51 13 96 22 136 28 302 10 399 -42 l34 -19 -55 -6
c-30 -4 -86 -8 -125 -8 -108 -2 -108 -16 0 -30 52 -8 95 -17 95 -20 0 -19 -30
-31 -80 -32 l-55 -1 42 -8 c23 -5 56 -17 75 -27 l33 -18 -67 -3 c-67 -3 -67
-3 -58 -27 7 -19 6 -25 -4 -25 -13 0 -229 43 -280 56 l-28 7 18 -29 c19 -27
19 -28 0 -21 -47 18 -153 30 -190 21 -37 -9 -34 -10 72 -28 97 -16 112 -21
112 -37 0 -36 -44 -45 -118 -26 -37 10 -78 20 -92 23 -24 5 -24 5 -6 -10 10
-8 52 -23 93 -32 81 -18 167 -14 261 11 l52 13 0 -29 0 -28 95 6 c92 6 95 5
95 -15 0 -20 5 -22 71 -22 59 0 70 -2 60 -14 -9 -11 0 -15 51 -21 56 -7 60 -9
33 -15 -16 -5 -64 -11 -105 -15 -84 -7 -120 -21 -82 -31 38 -11 25 -20 -58
-39 -74 -17 -79 -20 -65 -35 8 -9 15 -20 15 -23 0 -13 -55 -7 -160 18 -122 29
-202 32 -220 10 -17 -21 -24 -19 -83 20 -48 33 -52 34 -55 15 -4 -24 -21 -26
-48 -5 -29 22 -69 19 -87 -7 l-16 -23 0 23 c-1 13 -15 38 -33 55 l-32 32 -14
-35 c-19 -44 -26 -118 -18 -165 9 -46 64 -107 122 -134 94 -45 165 -54 449
-60 l270 -6 -60 -17 c-40 -10 -51 -16 -33 -17 44 -2 42 -19 -4 -31 -68 -18
-77 -24 -35 -28 48 -4 52 -32 5 -32 -37 0 -195 17 -247 27 -31 5 -34 4 -29
-14 12 -44 -6 -49 -74 -21 -59 24 -63 25 -66 8 -3 -17 -8 -16 -65 10 -34 15
-63 27 -65 25 -1 -1 2 -14 7 -28 15 -38 -1 -41 -58 -12 -82 41 -101 33 -101
-44 0 -76 72 -121 230 -145 93 -14 126 -26 74 -26 -65 -1 7 -19 161 -40 167
-23 390 -31 505 -17 l65 7 -27 -23 c-30 -25 -35 -37 -15 -37 31 0 87 -22 81
-32 -4 -7 -41 -8 -108 -4 -99 5 -109 4 -53 -8 20 -5 27 -12 27 -31 0 -31 -2
-31 -92 1 -91 33 -137 44 -143 34 -3 -4 9 -13 26 -20 31 -13 29 -25 -6 -32
-16 -4 -12 -8 20 -22 22 -9 60 -22 85 -27 49 -12 267 -14 337 -3 23 3 43 2 43
-2 -1 -12 -54 -49 -108 -75 -36 -17 -41 -23 -31 -35 23 -29 -5 -33 -86 -13
-101 24 -130 24 -147 0 -12 -18 -18 -16 -124 29 l-111 47 -11 -44 c-13 -46
-25 -54 -41 -26 -9 17 -11 16 -33 -5 -15 -13 -47 -26 -84 -33 -75 -14 -85 -24
-39 -39 45 -15 89 -9 203 29 105 35 148 42 144 22 -4 -18 16 -31 48 -31 l25
-1 -22 -18 -22 -19 22 -6 c12 -3 47 -6 77 -7 30 0 64 -4 75 -8 18 -7 17 -9
-11 -24 -51 -26 -121 -30 -204 -12 -100 22 -180 30 -180 17 0 -5 24 -12 53
-14 59 -5 151 -44 141 -60 -10 -16 -164 -3 -264 21 -47 11 -110 23 -140 26
-55 6 -55 6 -27 -10 16 -9 56 -19 89 -23 97 -11 86 -31 -19 -34 -68 -2 -97 1
-125 15 l-38 17 0 -35 c0 -41 -11 -45 -34 -10 -12 19 -23 24 -36 20 -15 -5
-21 0 -25 18 -5 18 -12 23 -25 20 -12 -3 -20 1 -23 14 -3 15 -6 13 -15 -9 -21
-51 -36 -193 -26 -245 8 -41 13 -48 35 -51 21 -2 37 9 82 57 50 54 56 59 62
40 11 -34 -12 -71 -80 -132 l-65 -58 0 -213 c0 -117 6 -309 14 -427 22 -318
29 -494 21 -518 -6 -20 -13 -21 -122 -21 l-116 0 6 658 c3 361 2 668 -2 682
-4 16 -26 35 -61 55 -29 16 -55 36 -58 43 -5 15 55 17 92 2 l26 -10 0 63 c0
89 -9 97 -57 53 -22 -20 -43 -36 -47 -36 -3 0 7 27 24 60 17 33 26 60 22 60
-16 0 -41 -36 -57 -80 -20 -58 -42 -80 -76 -80 -26 0 -28 2 -19 26 9 22 8 25
-7 20 -45 -12 -83 -17 -83 -10 0 4 23 29 50 54 28 25 50 51 50 57 0 7 -34 0
-85 -18 -90 -31 -119 -31 -89 2 11 12 13 19 5 19 -28 0 -71 -33 -105 -79 -36
-48 -53 -61 -83 -61 -9 0 -13 6 -9 15 20 50 20 48 -3 35 -13 -6 -30 -9 -39 -5
-14 5 -13 9 8 20 l25 14 -32 1 c-18 0 -33 -4 -33 -8 0 -5 -12 -14 -26 -20 -23
-11 -28 -9 -50 18 -14 16 -36 30 -47 30 -16 0 -18 3 -9 9 8 4 -13 7 -50 7 -64
-1 -132 19 -122 35 3 5 18 9 34 9 16 0 32 5 35 10 4 6 -7 10 -27 10 -42 0
-108 18 -108 30 0 4 45 12 100 16 l101 7 -29 18 c-41 24 -53 45 -21 35 13 -4
47 -15 74 -24 77 -24 440 -23 555 1 106 23 183 57 206 92 16 24 16 29 1 61
-24 49 -61 46 -157 -11 -79 -47 -106 -56 -96 -30 21 51 22 48 -12 31 -39 -20
-62 -20 -62 -1 0 18 -9 18 -80 2 -31 -8 -60 -12 -66 -10 -6 2 -19 -12 -29 -31
l-19 -35 -21 19 c-20 19 -24 19 -58 5 -23 -9 -38 -11 -42 -5 -3 6 0 13 9 16 8
3 17 12 20 19 4 10 -3 12 -28 8 -36 -6 -76 10 -76 30 0 7 26 22 58 32 38 14
50 21 36 23 -12 2 -63 -13 -114 -32 -51 -20 -104 -36 -118 -36 l-26 0 30 31
c29 31 29 31 4 24 -14 -4 -56 -20 -94 -36 -70 -30 -120 -37 -131 -19 -4 6 13
19 37 29 l43 20 -63 0 c-71 1 -80 16 -21 37 31 11 22 13 -83 13 -65 1 -118 5
-118 10 0 10 125 47 205 60 101 16 161 21 415 31 264 11 412 29 518 62 74 22
143 55 154 72 11 16 9 58 -2 76 -9 13 -14 10 -36 -14 -21 -23 -28 -26 -35 -15
-5 8 -9 18 -9 23 0 6 -15 -5 -34 -23 -32 -31 -33 -32 -39 -10 -5 18 -11 21
-37 16 -28 -6 -30 -5 -24 18 6 24 5 25 -52 25 -63 0 -124 -23 -181 -66 -38
-29 -39 -29 -46 -5 -3 14 -15 21 -38 23 -41 4 -40 19 1 33 22 7 -16 10 -148
10 -155 1 -182 3 -217 20 l-40 20 68 3 c37 2 67 6 67 10 0 4 -37 21 -83 37
l-82 30 239 5 238 5 -103 60 c-125 72 -114 78 61 35 120 -29 219 -38 257 -23
15 6 13 8 -11 13 -16 3 -31 10 -33 15 -2 7 32 11 91 12 53 1 112 7 133 13 48
16 90 55 98 91 7 32 -11 109 -26 109 -15 0 -64 -35 -123 -87 -26 -24 -53 -43
-58 -43 -7 0 -8 18 -4 50 8 58 0 61 -74 35 -48 -17 -98 -19 -119 -6 -12 7 -2
16 40 35 29 15 45 23 34 20 -52 -18 -143 -15 -230 6 -49 11 -120 24 -157 27
-96 8 -91 29 9 39 l77 7 -23 18 c-13 11 -35 22 -50 25 -54 11 -112 36 -108 47
2 6 18 15 36 20 l33 8 -42 37 c-24 20 -61 42 -84 48 l-41 11 43 13 c35 11 62
11 156 0 63 -7 133 -10 157 -6 24 4 65 11 91 15 25 4 53 13 61 20 12 9 37 10
110 2 96 -10 208 -2 244 17 32 17 40 34 48 90 6 49 5 54 -14 59 -12 3 -21 12
-21 19 0 22 -14 17 -61 -25 -24 -21 -58 -45 -76 -55 -35 -18 -109 -22 -115 -6
-2 6 -34 4 -88 -6 -91 -17 -252 -16 -270 2 -7 7 19 19 82 36 l93 25 -40 18
-40 18 40 6 c53 9 64 17 58 41 -5 19 0 20 78 20 65 0 80 3 71 12 -19 19 -14
28 12 28 14 0 28 5 32 12 13 21 -96 1 -223 -41 -66 -23 -136 -41 -153 -41 -29
0 -31 2 -19 17 13 15 8 16 -61 10 -41 -4 -96 -9 -122 -13 -40 -6 -48 -4 -48 9
0 11 17 19 57 27 l57 12 -27 14 c-15 8 -27 17 -27 21 0 3 35 3 78 0 64 -5 83
-3 102 10 l24 17 -29 12 -30 12 43 12 c33 10 59 11 124 2 46 -7 94 -12 108
-12 23 0 22 2 -13 22 -53 31 -42 44 34 38 35 -3 126 -5 201 -5 136 0 138 0
164 27 31 30 27 58 -8 58 -13 0 -47 -11 -76 -25 -66 -31 -92 -32 -92 -5 0 12
-8 22 -22 25 -13 3 -68 15 -123 28 -94 22 -99 24 -76 36 16 9 83 17 181 22
173 8 224 22 240 63 24 65 -47 96 -151 64 -37 -11 -38 -12 -23 -30 10 -10 15
-18 13 -18 -2 0 -58 -11 -124 -25 -121 -25 -185 -31 -185 -17 0 4 14 16 31 27
17 11 35 28 40 38 8 14 5 19 -18 28 -15 5 -48 9 -73 8 -30 -2 -44 1 -43 9 2 6
-8 14 -22 18 -14 3 -25 10 -25 15 0 5 2 9 4 9 2 0 31 7 63 15 32 8 110 19 174
24 167 14 207 26 223 66 10 24 24 36 51 45 28 9 34 15 24 21 -12 8 -11 11 4
20 9 5 17 14 17 19 0 14 -73 -11 -186 -63 -113 -52 -119 -54 -132 -31 -8 15
-19 15 -102 3 -87 -11 -92 -13 -72 -27 35 -23 27 -35 -20 -29 -31 4 -50 14
-68 35 -14 17 -44 40 -68 52 -71 35 -72 74 -2 46 43 -17 136 -21 159 -7 9 6
-3 11 -38 16 -28 4 -51 10 -51 15 0 14 44 20 157 20 61 0 118 3 127 6 14 5 14
8 0 29 -9 13 -13 28 -10 33 3 5 54 11 113 14 60 2 118 10 131 17 29 16 82 88
82 113 0 21 -53 48 -95 48 -35 0 -31 17 6 25 23 5 28 9 18 16 -25 15 -85 10
-163 -16 -73 -24 -186 -34 -186 -17 0 4 15 16 33 27 l32 20 -70 7 c-139 15
-158 19 -146 31 6 6 55 13 108 15 l97 5 -34 17 -34 17 66 12 c35 6 74 11 86
11 28 0 28 8 0 38 l-23 24 72 -3 c39 -2 75 -1 78 3 4 3 1 16 -5 28 -11 21 -11
21 76 14 90 -7 104 1 44 26 -40 16 -38 25 8 36 30 7 38 14 40 37 3 25 0 27
-30 27 -19 0 -49 -11 -70 -25 -69 -47 -81 -48 -119 -8 -41 43 -85 63 -139 63
-22 0 -40 5 -40 10 0 6 10 10 21 10 20 0 20 2 -6 22 -27 21 -27 22 -6 29 11 5
27 7 34 4 6 -2 45 -6 85 -10 70 -6 73 -5 68 13 -6 18 -3 20 32 15 27 -4 52 1
85 16 25 12 53 21 61 21 12 0 16 10 16 35 0 33 -2 35 -31 33 -45 -4 -45 14 -1
37 30 16 37 26 37 50 0 26 -3 30 -25 27 -116 -11 -158 -12 -180 -4 -24 9 -22
10 34 39 33 16 55 32 50 35 -5 3 -53 16 -106 29 -78 18 -95 25 -86 36 6 7 28
13 49 13 28 0 41 5 49 20 8 15 21 20 56 20 86 0 142 40 151 107 l5 38 -59 -1
c-52 -1 -58 -3 -56 -21 2 -18 -4 -22 -42 -25 -50 -4 -49 -4 -35 23 10 17 7 19
-21 19 -27 0 -30 2 -19 15 11 13 8 15 -21 15 -49 0 -79 10 -79 26 0 10 13 14
44 14 65 0 96 14 96 45 0 24 3 25 56 25 91 0 144 38 144 102 0 11 -17 38 -39
59 l-39 39 33 34 c29 31 37 51 61 151 6 25 10 15 20 -56 6 -47 17 -95 23 -107z"/>
<path d="M4267 6826 c-3 -8 1 -17 10 -20 20 -8 25 -3 17 18 -8 20 -20 21 -27
2z"/>
<path d="M4590 6410 c-30 -11 -46 -19 -35 -19 11 0 45 8 75 19 30 10 46 18 35
18 -11 0 -45 -8 -75 -18z"/>
<path d="M4485 6091 c-5 -5 -21 -11 -35 -13 -23 -4 -23 -6 13 -22 49 -22 58
-18 44 17 -8 18 -15 25 -22 18z"/>
<path d="M4835 5140 l-70 -18 50 -1 c64 -1 205 20 205 31 0 14 -112 7 -185
-12z"/>
<path d="M5108 5083 c12 -2 32 -2 45 0 12 2 2 4 -23 4 -25 0 -35 -2 -22 -4z"/>
<path d="M4830 5069 c0 -7 109 -23 116 -17 2 2 -23 9 -56 14 -33 6 -60 7 -60
3z"/>
<path d="M4516 4605 c-3 -8 -26 -25 -51 -37 -33 -16 -45 -28 -45 -44 0 -32 12
-36 54 -19 20 8 66 15 104 15 72 0 140 17 125 30 -9 10 -159 70 -172 70 -5 0
-11 -7 -15 -15z"/>
<path d="M4680 4618 c0 -2 10 -18 23 -35 l22 -31 55 29 c44 23 50 28 30 29
-14 0 -49 3 -77 6 -29 4 -53 5 -53 2z"/>
<path d="M5070 4480 c-12 -8 -10 -9 10 -9 14 1 39 5 55 9 29 7 29 8 -10 9 -22
0 -47 -4 -55 -9z"/>
<path d="M3685 4241 c-28 -7 -26 -8 22 -15 59 -9 200 2 209 15 6 10 -187 10
-231 0z"/>
<path d="M5058 4158 c6 -6 25 -11 42 -11 17 0 36 5 42 11 9 9 -1 12 -42 12
-41 0 -51 -3 -42 -12z"/>
<path d="M4025 4109 c-16 -10 -26 -19 -22 -19 11 0 67 29 67 35 0 9 -15 4 -45
-16z"/>
<path d="M4473 3204 c-14 -14 -23 -28 -20 -30 7 -8 117 16 117 25 0 15 -25 31
-47 31 -13 0 -35 -12 -50 -26z"/>
<path d="M4690 3186 c-58 -18 -121 -40 -140 -49 l-35 -15 41 -1 c37 -1 172 20
229 35 15 4 13 0 -10 -20 -29 -25 -29 -26 -11 -41 30 -23 121 -20 146 5 28 28
26 52 -3 45 -26 -7 -72 24 -82 55 -8 26 -10 25 -135 -14z"/>
<path d="M3685 2944 c-75 -15 -125 -28 -121 -31 6 -7 130 19 141 28 5 5 7 8 5
8 -3 -1 -14 -3 -25 -5z"/>
</g>
</svg>
