<?xml version="1.0" standalone="no"?>
<!DOCTYPE svg PUBLIC "-//W3C//DTD SVG 20010904//EN"
 "http://www.w3.org/TR/2001/REC-SVG-20010904/DTD/svg10.dtd">
<svg version="1.0" xmlns="http://www.w3.org/2000/svg"
 width="260.000000pt" height="260.000000pt" viewBox="0 0 260.000000 260.000000"
 preserveAspectRatio="xMidYMid meet">
<metadata>
Created by potrace 1.11, written by Peter Selinger 2001-2013
</metadata>
<g transform="translate(0.000000,260.000000) scale(0.100000,-0.100000)"
fill="#000000" stroke="none">
<path d="M1169 2526 c-3 -3 -39 -10 -80 -16 -73 -11 -128 -24 -161 -41 -10 -5
-25 -9 -33 -9 -8 0 -23 -4 -33 -9 -9 -6 -48 -24 -87 -42 -269 -124 -523 -396
-619 -664 -10 -27 -21 -59 -26 -70 -10 -23 -34 -130 -50 -230 -19 -112 -3
-367 30 -470 38 -120 69 -199 98 -255 96 -179 249 -350 410 -458 89 -59 210
-122 236 -122 6 0 16 -4 21 -8 12 -10 100 -36 170 -51 213 -42 297 -42 510 0
70 15 158 41 170 51 5 4 15 8 21 8 26 0 147 63 236 122 161 108 314 279 410
458 29 56 60 135 98 255 33 103 49 358 30 470 -16 100 -40 207 -50 230 -5 11
-16 43 -26 70 -96 268 -350 540 -619 664 -38 18 -78 36 -87 42 -10 5 -25 9
-33 9 -8 0 -23 4 -33 9 -30 15 -85 30 -157 42 -75 13 -337 24 -346 15z m426
-901 l0 -30 78 -3 c58 -2 77 -6 77 -17 0 -11 -19 -15 -77 -17 l-78 -3 -5 -83
c-8 -131 -25 -99 -28 54 -2 124 -1 135 15 132 12 -2 17 -13 18 -33z m347 3 l3
-33 78 -3 c59 -2 77 -6 77 -17 0 -12 -17 -15 -80 -15 l-79 0 -3 -85 c-5 -137
-23 -102 -26 50 -2 113 0 135 12 135 9 0 16 -12 18 -32z m-1272 -53 c-9 -11
-35 -15 -106 -15 -77 0 -94 3 -94 15 0 12 18 15 106 15 94 0 105 -2 94 -15z
m370 0 c0 -12 -16 -15 -85 -15 l-85 0 0 -70 0 -70 85 0 c69 0 85 -3 85 -15 0
-12 -17 -15 -93 -15 -59 0 -97 4 -105 12 -16 16 -16 160 0 176 8 8 46 12 105
12 76 0 93 -3 93 -15z m355 -85 l0 -95 -95 0 -95 0 -3 84 c-2 46 0 90 2 98 4
11 27 13 98 11 l93 -3 0 -95z m-733 3 c20 -18 24 -73 6 -91 -8 -8 -46 -12
-105 -12 -76 0 -93 3 -93 15 0 12 16 15 85 15 84 0 85 0 85 25 0 25 -1 25 -85
25 -78 0 -85 2 -85 20 0 18 7 20 87 20 66 0 91 -4 105 -17z m-42 -335 c0 -51
-4 -99 -9 -106 -9 -16 -121 -13 -121 3 0 6 21 12 47 15 l48 5 3 88 c2 68 6 87
17 87 12 0 15 -18 15 -92z m356 78 c18 -19 20 -166 2 -184 -7 -7 -43 -12 -93
-12 -50 0 -86 5 -93 12 -16 16 -16 164 1 183 17 20 163 21 183 1z m362 2 c8
-8 12 -46 12 -105 0 -76 -3 -93 -15 -93 -12 0 -15 16 -15 85 l0 85 -70 0 -70
0 0 -85 c0 -78 -2 -85 -20 -85 -18 0 -20 7 -20 87 0 115 7 123 110 123 46 0
81 -5 88 -12z m377 -8 c0 -12 -18 -16 -92 -18 -91 -3 -105 2 -81 26 19 19 173
12 173 -8z m365 12 c0 -23 -30 -32 -111 -32 -84 0 -108 8 -94 30 7 12 205 14
205 2z m-362 -99 c3 -10 -22 -13 -102 -13 -89 0 -106 3 -106 15 0 13 16 15
102 13 70 -2 103 -7 106 -15z m350 5 c7 -7 12 -28 12 -48 0 -54 -12 -60 -117
-60 -75 0 -93 3 -93 15 0 11 19 15 88 17 85 3 87 3 87 28 0 25 -2 25 -87 28
-69 2 -88 6 -88 17 0 12 18 15 93 15 59 0 97 -4 105 -12z m-348 -93 c0 -12
-17 -15 -89 -15 -70 0 -90 3 -95 15 -4 13 9 15 89 15 78 0 95 -3 95 -15z"/>
<path d="M1230 1490 l0 -70 70 0 70 0 0 70 0 70 -70 0 -70 0 0 -70z"/>
<path d="M812 1143 l3 -68 68 -3 67 -3 0 71 0 70 -70 0 -71 0 3 -67z"/>
</g>
</svg>
