<?xml version="1.0" standalone="no"?>
<!DOCTYPE svg PUBLIC "-//W3C//DTD SVG 20010904//EN"
 "http://www.w3.org/TR/2001/REC-SVG-20010904/DTD/svg10.dtd">
<svg version="1.0" xmlns="http://www.w3.org/2000/svg"
 width="867.000000pt" height="867.000000pt" viewBox="0 0 867.000000 867.000000"
 preserveAspectRatio="xMidYMid meet">
<metadata>
Created by potrace 1.14, written by Peter Selinger 2001-2017
</metadata>
<g transform="translate(0.000000,867.000000) scale(0.100000,-0.100000)"
fill="#000000" stroke="none">
<path d="M880 8659 c-224 -26 -425 -123 -585 -284 -171 -170 -262 -367 -285
-618 -8 -77 -10 -1167 -8 -3507 4 -3760 -2 -3418 68 -3611 120 -332 436 -583
791 -629 60 -8 1089 -10 3529 -8 l3445 3 80 22 c375 105 622 352 726 724 l24
84 3 3445 c2 2440 0 3469 -8 3529 -48 364 -306 683 -649 800 -174 60 132 55
-3626 57 -1886 1 -3464 -2 -3505 -7z m3479 -1428 c10 -78 29 -109 84 -137 15
-8 27 -21 27 -30 0 -20 -29 -30 -51 -16 -27 17 -29 16 -29 -22 0 -59 43 -90
180 -133 107 -33 118 -38 109 -55 -11 -21 -66 -51 -78 -44 -5 3 -21 -4 -35
-15 -22 -17 -29 -19 -42 -9 -8 7 -16 11 -18 9 -10 -11 -55 -132 -51 -139 2 -4
-7 -12 -21 -18 -21 -10 -23 -15 -14 -33 8 -14 17 -18 28 -14 9 3 31 9 47 11
29 5 29 5 11 -10 -11 -9 -24 -16 -29 -16 -4 0 -5 -4 -2 -10 3 -5 23 -10 43
-10 32 0 39 -4 49 -30 15 -41 49 -47 123 -21 74 26 78 26 55 1 -27 -30 -15
-32 53 -8 67 25 88 20 51 -11 l-24 -20 42 -1 c42 0 73 -19 73 -46 0 -10 -15
-14 -62 -15 -35 -1 -74 -4 -87 -8 -21 -6 -22 -8 -7 -20 30 -25 16 -31 -71 -32
-49 -1 -78 -4 -65 -6 40 -8 12 -23 -41 -23 -54 0 -165 -24 -181 -40 -19 -19
109 -22 267 -5 90 9 172 15 183 13 14 -3 0 -15 -51 -46 -38 -23 -68 -42 -65
-43 3 -1 52 -4 110 -8 l105 -6 -95 -49 c-82 -42 -93 -50 -77 -60 57 -34 55
-35 -53 -36 -58 0 -112 -4 -120 -10 -16 -10 -19 -8 55 -33 l40 -14 -25 -14
-25 -14 40 -6 c22 -3 -18 -4 -90 -1 -137 4 -189 -5 -179 -32 12 -31 93 -51
209 -51 61 0 126 3 145 8 27 6 32 5 22 -5 -7 -7 -12 -15 -12 -19 0 -4 43 -15
96 -25 l97 -18 -47 -12 c-26 -7 -50 -15 -53 -18 -11 -11 9 -24 54 -36 90 -23
90 -24 23 -35 -48 -8 -64 -14 -63 -25 2 -12 -10 -16 -55 -18 -47 -2 -62 1 -81
17 -20 18 -38 21 -106 21 -104 0 -175 -21 -209 -61 -33 -39 -34 -63 -3 -56 59
15 107 19 107 9 0 -12 4 -14 132 -42 70 -16 95 -25 92 -35 -4 -10 8 -12 59 -8
37 3 72 1 83 -5 17 -10 15 -13 -21 -28 -28 -12 -77 -19 -160 -22 -66 -2 -124
-7 -128 -11 -4 -4 -3 -19 2 -33 l9 -25 -64 24 c-102 36 -139 27 -132 -34 5
-46 49 -50 198 -20 69 13 128 22 133 20 15 -9 6 -53 -12 -63 -11 -5 -50 -14
-86 -19 -37 -6 -70 -12 -73 -15 -16 -16 145 -2 276 24 83 17 178 30 212 30 57
0 60 -1 50 -20 -11 -21 -20 -18 130 -44 l75 -12 -72 -24 c-74 -24 -86 -33 -57
-44 9 -4 14 -13 10 -21 -4 -12 0 -14 17 -10 12 3 27 2 33 -2 10 -8 34 -46 34
-56 0 -3 -46 -17 -101 -33 -102 -28 -106 -34 -36 -48 18 -5 27 -13 27 -26 0
-24 -35 -40 -87 -40 -20 0 -45 -7 -55 -16 -14 -14 -20 -14 -33 -4 -9 7 -41 18
-73 25 -56 12 -56 13 -24 20 17 4 32 10 32 14 0 8 -222 53 -229 46 -8 -9 18
-29 52 -41 39 -13 50 -44 16 -44 -13 0 -43 8 -67 17 -36 13 -50 14 -75 5 -28
-11 -34 -8 -80 28 -27 22 -55 40 -61 40 -19 0 -36 -22 -36 -47 0 -26 0 -26
-34 -13 -30 11 -31 9 -11 -30 12 -23 13 -34 3 -55 -10 -21 -9 -29 6 -43 15
-15 35 -17 151 -14 132 3 175 -1 175 -17 0 -5 -24 -12 -52 -15 -48 -7 -51 -9
-34 -21 33 -25 102 -28 211 -11 120 19 185 20 238 5 46 -12 48 -27 5 -31 -22
-2 -36 -10 -42 -24 -9 -20 -12 -20 -55 -7 -46 14 -84 12 -183 -9 l-48 -10 15
-28 c19 -37 19 -42 -2 -36 -10 2 -49 7 -87 11 l-68 7 27 -36 c15 -20 25 -36
21 -36 -3 0 -46 16 -93 35 -85 34 -88 35 -103 16 -8 -10 -34 -28 -57 -40 -33
-16 -43 -27 -43 -46 0 -34 13 -38 65 -20 25 8 76 15 112 15 59 0 78 5 158 44
197 97 397 110 584 39 42 -16 43 -18 21 -24 -14 -4 -65 -8 -115 -9 -79 -2
-160 -13 -145 -20 3 -1 48 -10 100 -19 54 -9 93 -20 90 -26 -3 -6 -50 -10
-107 -10 -67 0 -107 -5 -115 -13 -9 -9 6 -12 72 -12 62 0 96 -6 125 -19 l40
-19 -57 -1 c-55 -1 -58 -2 -58 -26 0 -32 -2 -32 -170 4 -74 16 -137 27 -139
25 -2 -2 4 -13 14 -24 10 -11 16 -20 14 -20 -2 0 -37 7 -76 15 -69 14 -148 12
-158 -5 -2 -4 44 -15 103 -25 59 -9 111 -19 115 -22 5 -3 1 -14 -9 -24 -21
-23 -63 -24 -133 -3 -29 8 -62 14 -74 12 -18 -3 -15 -7 18 -21 89 -40 192 -47
305 -22 84 19 80 19 80 -11 l0 -27 94 7 c88 6 94 5 99 -14 4 -18 13 -20 72
-20 56 0 66 -2 56 -14 -9 -11 -1 -15 46 -21 l58 -8 -101 -12 c-116 -13 -138
-22 -103 -40 26 -14 37 -10 -102 -46 -40 -10 -40 -11 -23 -30 17 -18 16 -19
-17 -19 -19 0 -81 11 -139 25 -124 29 -160 31 -206 9 -33 -16 -34 -16 -83 20
-58 43 -65 44 -59 11 6 -30 7 -30 -42 -5 -50 26 -65 25 -84 -2 -13 -18 -16
-19 -16 -6 0 21 -48 78 -66 78 -7 0 -20 -22 -29 -52 -52 -177 35 -282 269
-323 61 -10 161 -15 320 -16 194 -1 224 -3 184 -13 -55 -13 -72 -26 -35 -26
41 0 41 -17 -1 -24 -21 -3 -46 -12 -57 -20 -19 -15 -18 -15 18 -16 20 0 37 -4
37 -10 0 -17 -176 -7 -284 16 -27 6 -28 5 -22 -20 10 -39 -15 -43 -84 -12 -58
24 -60 25 -60 6 0 -25 0 -26 -70 10 -33 17 -62 30 -64 30 -3 0 2 -16 10 -35 8
-19 10 -35 5 -35 -5 0 -33 11 -63 25 -66 31 -84 31 -92 3 -28 -108 40 -174
207 -200 42 -7 77 -16 77 -20 0 -5 -6 -8 -12 -8 -9 -1 -8 -4 2 -9 8 -5 87 -19
175 -32 167 -23 445 -32 535 -16 l45 8 -34 -25 c-37 -27 -37 -27 37 -46 23 -6
42 -14 42 -17 0 -3 -47 -3 -104 0 -66 4 -107 3 -111 -3 -4 -6 9 -10 30 -10 28
0 37 -5 44 -22 13 -34 -7 -34 -108 2 -50 18 -100 30 -117 28 l-29 -4 40 -19
c32 -15 36 -19 20 -23 -39 -8 -35 -19 13 -40 76 -33 171 -44 317 -36 l130 7
-45 -37 c-25 -20 -60 -39 -78 -42 -32 -6 -32 -7 -16 -25 27 -30 11 -33 -66
-14 -95 23 -148 24 -164 3 -11 -15 -21 -13 -116 28 -58 24 -107 44 -111 44 -3
0 -10 -17 -15 -37 -10 -41 -29 -54 -38 -25 -6 19 -8 18 -34 -8 -19 -19 -43
-29 -77 -34 -94 -13 -109 -26 -54 -45 52 -18 94 -13 205 24 118 40 152 44 150
18 -1 -13 9 -19 34 -23 34 -5 34 -6 12 -18 -35 -20 -17 -32 51 -33 34 -1 76
-4 92 -8 l30 -6 -43 -18 c-56 -23 -125 -22 -233 4 -91 21 -130 22 -136 3 -2
-7 18 -13 52 -17 31 -3 77 -16 103 -28 l47 -23 -33 -7 c-41 -8 -119 2 -277 35
-130 28 -155 31 -155 17 0 -12 74 -38 135 -48 49 -8 48 -8 -40 -13 -74 -5 -97
-3 -127 12 l-38 18 0 -42 -1 -43 -20 28 c-11 15 -30 27 -41 27 -11 0 -22 8
-25 20 -3 11 -12 20 -21 20 -8 0 -20 7 -27 17 -11 14 -13 12 -23 -15 -18 -51
-35 -190 -29 -233 6 -49 31 -79 58 -72 10 3 41 30 68 59 27 30 52 54 55 54 12
0 5 -46 -9 -67 -9 -12 -42 -48 -75 -79 l-60 -57 0 -211 c0 -116 7 -303 15
-416 7 -113 17 -280 21 -372 l7 -168 -118 0 -118 0 4 668 c4 749 11 686 -73
728 -61 31 -63 48 -5 41 23 -2 50 -8 60 -12 15 -6 17 0 17 53 0 100 -13 112
-68 63 -17 -17 -32 -28 -32 -27 0 2 11 29 25 60 14 31 21 56 17 56 -18 0 -53
-48 -68 -92 -17 -50 -26 -62 -61 -72 -20 -6 -23 -4 -23 19 0 27 -1 27 -47 21
l-48 -7 53 49 c48 45 64 72 44 72 -5 0 -42 -11 -82 -25 -96 -33 -110 -33 -79
1 l24 27 -30 -7 c-42 -10 -69 -30 -102 -73 -35 -47 -53 -62 -75 -63 -21 0 -22
4 -7 31 10 19 8 20 -28 14 -33 -5 -35 -4 -15 6 12 7 22 16 22 21 0 16 -57 8
-75 -12 -23 -25 -41 -25 -55 -1 -5 11 -19 23 -30 26 -37 12 -21 22 55 35 42 7
78 17 81 21 9 15 -47 10 -125 -11 -85 -23 -140 -24 -191 -5 l-35 13 30 7 c74
17 71 25 -11 36 -103 14 -88 29 29 29 109 0 130 8 77 30 -16 7 -35 19 -42 28
-11 14 -10 15 7 7 85 -35 123 -39 345 -39 199 0 235 2 313 22 146 36 206 79
192 135 -18 69 -66 71 -174 7 -80 -48 -94 -50 -81 -14 14 35 13 36 -12 20 -13
-8 -33 -17 -45 -21 -19 -5 -23 -2 -23 14 0 25 -8 25 -80 6 -68 -18 -71 -18
-64 0 12 30 -6 14 -31 -29 -26 -44 -26 -45 -46 -25 -18 18 -22 18 -49 4 -46
-24 -56 -18 -25 15 l29 30 -47 -6 c-44 -6 -77 5 -77 25 0 4 25 15 55 26 30 10
55 23 55 28 0 14 -60 0 -138 -32 -73 -30 -132 -47 -132 -37 0 4 15 20 33 36
40 37 22 38 -58 4 -98 -42 -145 -55 -164 -44 -13 7 -8 12 27 26 23 9 42 21 42
26 0 4 -27 8 -61 8 -37 0 -58 4 -54 10 3 6 14 10 24 10 10 0 24 7 31 15 11 13
-2 15 -106 16 l-119 0 55 20 c111 40 223 52 610 69 304 14 465 42 585 102 48
25 55 34 55 73 0 49 -19 60 -52 28 l-27 -26 -9 22 c-8 21 -8 21 -37 -9 -28
-29 -29 -29 -43 -9 -10 15 -21 19 -38 15 -22 -6 -24 -4 -18 19 6 24 5 25 -42
25 -68 0 -114 -15 -174 -55 -59 -40 -60 -40 -60 -21 0 16 -21 26 -56 26 -34 0
-22 16 19 27 22 5 -29 10 -158 13 -151 5 -196 9 -220 23 l-30 16 73 1 c39 0
72 4 72 9 0 5 -39 23 -87 39 l-88 30 245 1 245 1 -110 65 c-60 36 -103 65 -95
65 8 0 71 -14 140 -30 120 -29 218 -37 270 -23 22 6 21 7 -15 18 -38 11 -35
12 63 17 127 8 187 33 215 91 17 33 17 44 7 87 -7 28 -15 50 -19 50 -11 0 -86
-52 -136 -94 -25 -21 -49 -36 -52 -32 -4 4 -2 24 4 46 l10 40 -37 0 c-21 0
-57 -7 -81 -15 -43 -16 -89 -13 -89 4 0 5 17 16 38 24 101 41 133 58 127 66
-3 6 -30 -3 -61 -20 -69 -36 -151 -39 -276 -10 -46 11 -111 23 -145 27 -69 7
-85 24 -25 25 20 0 55 3 77 7 l39 7 -28 22 c-15 13 -44 25 -65 29 -45 8 -93
32 -87 43 3 5 20 12 38 15 l33 7 -45 40 c-24 23 -58 46 -75 53 l-30 13 41 7
c23 4 78 2 123 -4 105 -16 290 1 323 28 11 9 37 9 107 0 108 -13 219 -1 260
30 20 14 28 32 34 72 7 51 6 55 -22 82 l-30 29 -38 -34 c-79 -70 -133 -95
-175 -81 -16 5 -18 8 -7 15 19 12 5 11 -84 -6 -82 -16 -248 -19 -282 -6 -14 6
5 14 73 30 51 13 92 26 92 30 0 3 -17 13 -38 23 l-37 16 33 1 c44 1 73 17 66
36 -5 13 7 15 75 15 45 0 81 3 81 6 0 3 -4 13 -10 23 -8 16 -4 19 33 26 l42 7
-30 9 c-40 12 -106 -1 -230 -45 -112 -40 -168 -47 -158 -19 7 17 20 18 -177
-3 -70 -8 -85 10 -17 21 66 11 75 20 41 39 -28 16 -27 17 49 10 62 -5 83 -3
102 10 33 21 32 36 -2 36 -19 0 -24 3 -16 11 13 13 83 15 203 6 l95 -8 -37 20
c-79 44 -57 49 139 30 141 -13 217 -2 251 37 25 28 25 42 -1 58 -12 8 -34 2
-88 -22 -74 -33 -89 -33 -89 -3 0 15 -19 22 -107 41 -60 12 -112 25 -117 28
-23 13 39 24 182 31 105 6 169 14 195 24 64 27 70 95 11 117 -35 14 -62 12
-125 -6 -49 -15 -52 -18 -31 -27 12 -5 22 -13 22 -16 0 -8 -228 -52 -269 -51
l-35 0 43 36 c55 48 44 64 -45 64 -52 0 -62 3 -58 15 4 10 0 15 -14 15 -36 0
-33 16 6 29 20 6 102 18 182 26 172 17 233 33 239 60 5 31 20 44 64 56 34 9
38 13 24 21 -16 9 -16 11 5 28 l23 19 -29 1 c-16 0 -78 -23 -137 -50 -129 -60
-169 -71 -169 -45 0 14 -6 16 -32 12 -18 -3 -60 -9 -93 -13 -76 -8 -83 -13
-54 -35 l24 -19 -37 0 c-34 0 -68 20 -68 40 0 4 -25 20 -56 36 -79 40 -94 79
-18 48 59 -25 174 -20 174 7 0 5 -15 9 -32 10 -18 0 -42 4 -53 8 -17 7 -17 8
7 14 15 4 78 7 142 6 63 -1 119 2 126 6 8 5 6 14 -5 32 -9 14 -13 29 -8 33 4
4 56 10 115 12 124 4 145 14 187 91 l26 48 -23 19 c-12 10 -41 22 -65 26 l-42
7 35 12 c34 11 34 12 13 23 -32 17 -72 15 -139 -9 -82 -28 -157 -41 -184 -31
-22 8 -22 9 10 29 31 20 32 20 9 26 -13 3 -61 9 -106 13 -46 3 -83 10 -83 14
0 5 39 11 88 15 121 9 121 9 88 27 l-29 15 65 12 c35 6 75 11 88 11 l23 0 -21
23 c-12 13 -22 27 -22 32 0 4 29 5 65 2 68 -7 82 0 66 32 -10 18 -7 19 74 13
94 -5 107 4 48 32 l-38 19 40 11 c35 10 40 15 40 41 0 45 -40 45 -113 1 -31
-20 -62 -36 -67 -36 -5 0 -27 17 -50 39 -40 39 -86 60 -134 62 -19 1 -21 3 -7
6 17 5 16 8 -10 30 l-29 24 109 -6 c92 -5 108 -4 103 9 -4 11 6 15 41 19 26 3
71 13 99 23 51 18 53 20 53 56 0 36 0 37 -35 31 -37 -6 -50 11 -17 21 28 9 62
45 62 64 0 37 -12 40 -80 26 -61 -12 -140 -10 -140 5 0 4 26 20 58 35 l57 29
-75 19 c-157 40 -157 40 -135 49 11 4 32 8 48 8 15 1 35 10 44 21 13 14 30 20
61 20 57 0 110 25 133 64 23 38 24 65 3 114 -15 35 -16 36 -30 17 -13 -17 -12
-20 6 -30 32 -17 13 -24 -43 -18 -48 6 -50 5 -45 -15 5 -18 1 -22 -28 -28 -42
-8 -49 -2 -34 25 10 19 8 21 -21 21 -26 0 -29 2 -19 14 10 13 4 15 -41 18 -68
4 -81 28 -15 28 64 0 96 14 96 44 0 22 4 24 71 28 65 3 74 6 100 36 16 18 29
41 29 53 0 31 -26 74 -56 94 -23 15 -25 19 -11 27 26 14 65 88 73 136 4 23 8
41 10 39 2 -2 8 -36 13 -76z"/>
<path d="M4600 6418 c-36 -11 -59 -23 -51 -26 19 -7 142 28 135 39 -7 12 -8
12 -84 -13z"/>
<path d="M4490 6101 c0 -6 -13 -11 -30 -11 -40 0 -38 -18 5 -36 55 -23 66 -19
53 16 -10 31 -28 50 -28 31z"/>
<path d="M4838 5147 c-123 -28 -137 -42 -33 -33 111 8 235 28 235 37 0 25 -76
24 -202 -4z"/>
<path d="M5088 5088 c14 -14 73 -14 99 1 14 8 4 10 -46 11 -51 0 -62 -3 -53
-12z"/>
<path d="M4830 5072 c0 -10 57 -22 105 -22 45 1 11 16 -52 25 -32 4 -53 3 -53
-3z"/>
<path d="M3700 4250 c-45 -5 -51 -8 -35 -15 25 -12 219 -13 260 -1 l30 9 -25
7 c-30 9 -152 9 -230 0z"/>
<path d="M5053 4163 c9 -10 32 -17 52 -17 20 0 43 7 52 17 16 16 13 17 -52 17
-65 0 -68 -1 -52 -17z"/>
<path d="M4486 3219 c-29 -23 -35 -49 -10 -49 28 0 104 22 104 31 0 10 -41 39
-56 39 -6 0 -23 -9 -38 -21z"/>
<path d="M4670 3184 c-131 -43 -160 -57 -147 -70 5 -6 114 10 227 32 35 7 35
7 17 -14 -18 -20 -18 -21 8 -38 38 -25 110 -22 141 7 27 25 33 62 9 53 -28
-11 -63 6 -85 41 -12 19 -25 35 -28 35 -4 -1 -68 -21 -142 -46z"/>
</g>
</svg>
